<mxfile host="app.diagrams.net" agent="Mozilla/5.0 (X11; Ubuntu; Linux x86_64; rv:134.0) Gecko/20100101 Firefox/134.0" version="26.0.10">
  <diagram name="Page-1" id="lXQ8hpZzJ2mFjcO0o09F">
    <mxGraphModel dx="449" dy="837" grid="1" gridSize="10" guides="1" tooltips="1" connect="1" arrows="1" fold="1" page="1" pageScale="1" pageWidth="850" pageHeight="1100" math="0" shadow="0">
      <root>
        <mxCell id="0" />
        <mxCell id="1" parent="0" />
        <mxCell id="tfxjrHR3N9UEgxLu-9ql-13" style="edgeStyle=orthogonalEdgeStyle;rounded=0;orthogonalLoop=1;jettySize=auto;html=1;entryX=0.5;entryY=0;entryDx=0;entryDy=0;" parent="1" source="tfxjrHR3N9UEgxLu-9ql-2" target="tfxjrHR3N9UEgxLu-9ql-3" edge="1">
          <mxGeometry relative="1" as="geometry" />
        </mxCell>
        <mxCell id="tfxjrHR3N9UEgxLu-9ql-2" value="Grantor" style="rounded=1;whiteSpace=wrap;html=1;" parent="1" vertex="1">
          <mxGeometry x="280" y="280" width="120" height="60" as="geometry" />
        </mxCell>
        <mxCell id="tfxjrHR3N9UEgxLu-9ql-10" style="edgeStyle=orthogonalEdgeStyle;rounded=0;orthogonalLoop=1;jettySize=auto;html=1;" parent="1" source="tfxjrHR3N9UEgxLu-9ql-3" target="tfxjrHR3N9UEgxLu-9ql-6" edge="1">
          <mxGeometry relative="1" as="geometry" />
        </mxCell>
        <mxCell id="tfxjrHR3N9UEgxLu-9ql-11" style="edgeStyle=orthogonalEdgeStyle;rounded=0;orthogonalLoop=1;jettySize=auto;html=1;entryX=0.5;entryY=0;entryDx=0;entryDy=0;" parent="1" source="tfxjrHR3N9UEgxLu-9ql-3" target="tfxjrHR3N9UEgxLu-9ql-7" edge="1">
          <mxGeometry relative="1" as="geometry" />
        </mxCell>
        <mxCell id="tfxjrHR3N9UEgxLu-9ql-12" style="edgeStyle=orthogonalEdgeStyle;rounded=0;orthogonalLoop=1;jettySize=auto;html=1;entryX=0.5;entryY=0;entryDx=0;entryDy=0;dashed=1;" parent="1" source="tfxjrHR3N9UEgxLu-9ql-3" target="tfxjrHR3N9UEgxLu-9ql-8" edge="1">
          <mxGeometry relative="1" as="geometry" />
        </mxCell>
        <mxCell id="tfxjrHR3N9UEgxLu-9ql-18" style="edgeStyle=orthogonalEdgeStyle;rounded=0;orthogonalLoop=1;jettySize=auto;html=1;" parent="1" source="tfxjrHR3N9UEgxLu-9ql-3" target="tfxjrHR3N9UEgxLu-9ql-15" edge="1">
          <mxGeometry relative="1" as="geometry" />
        </mxCell>
        <mxCell id="tfxjrHR3N9UEgxLu-9ql-19" style="edgeStyle=orthogonalEdgeStyle;rounded=0;orthogonalLoop=1;jettySize=auto;html=1;" parent="1" source="tfxjrHR3N9UEgxLu-9ql-3" target="tfxjrHR3N9UEgxLu-9ql-16" edge="1">
          <mxGeometry relative="1" as="geometry" />
        </mxCell>
        <mxCell id="tfxjrHR3N9UEgxLu-9ql-3" value="&lt;div align=&quot;left&quot;&gt;&lt;b&gt;Instrument Type&lt;/b&gt;&lt;/div&gt;&lt;div align=&quot;left&quot;&gt;Execution Date&lt;/div&gt;&lt;div align=&quot;left&quot;&gt;Effective Date&lt;/div&gt;&lt;div align=&quot;left&quot;&gt;Expiry Date&lt;/div&gt;&lt;div align=&quot;left&quot;&gt;&lt;br&gt;&lt;/div&gt;&lt;div align=&quot;left&quot;&gt;User Notes&lt;br&gt;&lt;/div&gt;" style="rounded=1;whiteSpace=wrap;html=1;align=left;spacingLeft=10;" parent="1" vertex="1">
          <mxGeometry x="230" y="410" width="220" height="140" as="geometry" />
        </mxCell>
        <mxCell id="tfxjrHR3N9UEgxLu-9ql-6" value="Grantee" style="rounded=1;whiteSpace=wrap;html=1;" parent="1" vertex="1">
          <mxGeometry x="120" y="630" width="120" height="60" as="geometry" />
        </mxCell>
        <mxCell id="tfxjrHR3N9UEgxLu-9ql-7" value="Grantee" style="rounded=1;whiteSpace=wrap;html=1;" parent="1" vertex="1">
          <mxGeometry x="280" y="630" width="120" height="60" as="geometry" />
        </mxCell>
        <mxCell id="tfxjrHR3N9UEgxLu-9ql-8" value="Grantee (Also Grantor)" style="rounded=1;whiteSpace=wrap;html=1;" parent="1" vertex="1">
          <mxGeometry x="440" y="630" width="120" height="60" as="geometry" />
        </mxCell>
        <mxCell id="tfxjrHR3N9UEgxLu-9ql-14" value="Death Certificate" style="rounded=1;whiteSpace=wrap;html=1;arcSize=50;" parent="1" vertex="1">
          <mxGeometry x="560" y="370" width="120" height="60" as="geometry" />
        </mxCell>
        <mxCell id="tfxjrHR3N9UEgxLu-9ql-15" value="Affidavit " style="rounded=1;whiteSpace=wrap;html=1;arcSize=50;" parent="1" vertex="1">
          <mxGeometry x="560" y="450" width="120" height="60" as="geometry" />
        </mxCell>
        <mxCell id="tfxjrHR3N9UEgxLu-9ql-16" value="Obituary" style="rounded=1;whiteSpace=wrap;html=1;arcSize=50;" parent="1" vertex="1">
          <mxGeometry x="560" y="530" width="120" height="60" as="geometry" />
        </mxCell>
        <mxCell id="tfxjrHR3N9UEgxLu-9ql-17" style="edgeStyle=orthogonalEdgeStyle;rounded=0;orthogonalLoop=1;jettySize=auto;html=1;entryX=0;entryY=0.5;entryDx=0;entryDy=0;" parent="1" source="tfxjrHR3N9UEgxLu-9ql-3" target="tfxjrHR3N9UEgxLu-9ql-14" edge="1">
          <mxGeometry relative="1" as="geometry" />
        </mxCell>
        <mxCell id="tfxjrHR3N9UEgxLu-9ql-21" value="Sticky Note" style="shape=note;strokeWidth=2;fontSize=14;size=20;whiteSpace=wrap;html=1;fillColor=#fff2cc;strokeColor=#d6b656;fontColor=#666600;" parent="1" vertex="1">
          <mxGeometry x="460" y="260" width="110.00000000000001" height="80" as="geometry" />
        </mxCell>
        <mxCell id="vKmnRtMLyKMqPGgiTS_0-1" value="Example Note added for git change history" style="shape=note;strokeWidth=2;fontSize=14;size=20;whiteSpace=wrap;html=1;fillColor=#fff2cc;strokeColor=#d6b656;fontColor=#666600;" vertex="1" parent="1">
          <mxGeometry x="80" y="360" width="110.00000000000001" height="80" as="geometry" />
        </mxCell>
      </root>
    </mxGraphModel>
  </diagram>
</mxfile>
